<svg xmlns="http://www.w3.org/2000/svg" viewBox="0 0 3007.01 1570"><defs><style>.cls-1{fill:#ed1c24;}.cls-2{fill:#231f20;}.cls-3{fill:#fff;}</style></defs><g id="Layer_2" data-name="Layer 2"><g id="Layer_1-2" data-name="Layer 1"><polygon class="cls-1" points="20 920 2220 1570 2756.15 608.87 620 0 20 920"/><rect class="cls-2" x="10" y="910" width="2980" height="140"/><path class="cls-3" d="M2980,920v120H20V920H2980m20-20H0v160H3000V900Z"/><polygon class="cls-2" points="10.14 930 10.14 598.87 282.09 598.87 282.09 705.88 149.67 705.88 149.67 930 10.14 930"/><path class="cls-3" d="M272.09,608.87v87H139.67V920H20.14V608.87h252m20-20H.14V940H159.67V715.88H292.09v-127Z"/><path class="cls-2" d="M293.31,1048.36V598.87H424.93V628.4c9.67-9.74,18.86-16.89,27.79-21.63,18.78-9.91,39.77-14.93,62.41-14.93,44.81,0,80,17.47,104.66,51.93,23.89,33.43,36,75.11,36,123.89,0,54.08-13.4,96.21-39.81,125.23C589.31,922.18,555.18,937,514.54,937c-19.59,0-37.78-3.41-54.06-10.13a127.27,127.27,0,0,1-26.76-15.08v136.54ZM476.16,699.43c-12.27,0-22.24,4.7-30.48,14.36-8.52,10-12.84,27.33-12.84,51.52,0,22,4.4,38.25,13.07,48.23,8.44,9.71,18.81,14.43,31.72,14.43,10.81,0,19.68-4.41,27.13-13.48,7.82-9.54,11.79-27,11.79-51.81,0-22.69-4.16-39.23-12.36-49.15C496.35,704,487.18,699.43,476.16,699.43Z"/><path class="cls-3" d="M515.13,601.84q62.4,0,96.53,47.75t34.13,118.07q0,77.64-37.21,118.5t-94,40.87q-27.54,0-50.25-9.37a119.61,119.61,0,0,1-40.57-27.84v148.54H303.31V608.87H414.93v46q23.15-29,42.48-39.25,26.07-13.77,57.72-13.77M477.63,838q20.79,0,34.86-17.14t14.06-58.15q0-37.8-14.65-55.52t-35.74-17.73q-22.85,0-38.09,17.87t-15.23,58q0,36.91,15.53,54.79T477.63,838m37.5-256.13c-24.29,0-46.85,5.41-67.06,16.08a101.2,101.2,0,0,0-13.14,8.41V588.87H283.31v469.49H443.72V930a134.36,134.36,0,0,0,12.94,6.16c17.5,7.23,37,10.89,57.88,10.89,43.58,0,80.19-15.95,108.83-47.4,14.32-15.73,25.15-35.09,32.2-57.54,6.78-21.6,10.22-46.64,10.22-74.43,0-50.91-12.74-94.54-37.86-129.7-13.26-18.55-29.61-32.72-48.6-42.11-18.8-9.3-40.4-14-64.2-14ZM477.63,818c-10,0-17.65-3.49-24.16-11-7-8-10.63-22.4-10.63-41.67,0-27.08,5.69-39.44,10.45-45,6.4-7.5,13.45-10.85,22.87-10.85,8.07,0,14.34,3.23,20.33,10.47,6.58,8,10.06,22.76,10.06,42.78,0,29.46-6,41.13-9.52,45.46-5.58,6.8-11.56,9.83-19.4,9.83Z"/><path class="cls-2" d="M783.65,937c-39.47,0-70.15-9.53-91.19-28.32-21.36-19.08-32.19-43-32.19-71,0-26.1,7.87-48,23.41-65s42.37-29.13,82.2-37.06c44.27-8.89,73.33-15.19,86.33-18.73,10.89-3,22.48-6.76,34.55-11.32-.68-8-2.64-13.79-5.77-16.82-4-3.85-12.85-6-25-6-17.5,0-30.47,2.63-38.55,7.8-5.65,3.62-10.49,11.16-14.41,22.4l-2.6,7.49-132.93-14,2.35-10.88c4.56-21.16,11.36-38.22,20.22-50.7s21.84-23.61,38.34-32.71c12-6.65,27.8-11.61,48.23-15.16a376.05,376.05,0,0,1,63.82-5.12c36.17,0,65.76,2.07,87.95,6.17,23.38,4.32,43.22,13.52,59,27.37,11.37,9.83,20.41,23.79,26.83,41.45,6.23,17.13,9.39,33.81,9.39,49.56v137.4c0,13.86.85,24.71,2.54,32.24s5.51,17.47,11.4,29.61l7,14.36H910.8l-2.86-5.1c-4.87-8.67-8-15.25-9.58-20.12-.37-1.12-.73-2.37-1.09-3.74-12.06,9.82-24.2,17.3-36.23,22.33C838.75,932.45,812.74,937,783.65,937Zm64.62-139.48c-29.37,7.82-38.64,13.72-41.55,16.54-4.72,4.59-6.92,9.29-6.92,14.8,0,6.58,2.08,11.54,6.54,15.6,4.62,4.2,12.06,6.33,22.13,6.33a63.74,63.74,0,0,0,32.15-8.38c9.64-5.44,16.49-12,20.34-19.46,4-7.8,6.07-18.43,6.07-31.59v-5.06C874.47,790.45,861.49,794.21,848.27,797.55Z"/><path class="cls-3" d="M840.48,601.84q53.63,0,86.14,6t54.2,25q15.23,13.18,24,37.35t8.79,46.15v137.4q0,22,2.78,34.42T1028.57,920H916.66q-6.75-12-8.79-18.31t-4.1-19.78q-23.44,22.58-46.59,32.23Q825.55,927,783.65,927q-55.67,0-84.52-25.78t-28.86-63.57q0-35.45,20.8-58.3t76.76-34q67.08-13.47,87-18.9A406.94,406.94,0,0,0,897,712.29q0-22-9.08-30.77T856,672.73q-29.29,0-43.94,9.38-11.43,7.32-18.46,27.54l-114-12q6.45-29.89,18.61-47t35-29.74q16.4-9.07,45.12-14.06a363.69,363.69,0,0,1,62.1-5m-12,259a74.12,74.12,0,0,0,37.06-9.67q17.15-9.66,24.32-23.58T897,791.39v-19q-24.62,8.79-51.27,15.53-36.33,9.68-46,19-10,9.68-10,22,0,14.05,9.82,23t28.85,8.94m12-279A385.59,385.59,0,0,0,775,587.11c-21.56,3.74-38.36,9.06-51.39,16.27-17.8,9.82-31.82,21.82-41.64,35.67S665,670.62,660.09,693.42l-4.69,21.77,22.15,2.34,83.6,8.81c-40.48,8.37-68.27,21.33-84.87,39.57-17.26,19-26,43.1-26,71.77,0,31,12,57.43,35.53,78.49C708.72,936.65,741.64,947,783.65,947c30.39,0,57.67-4.83,81.08-14.37l.08,0,.08,0a147.31,147.31,0,0,0,27.71-15.48c1.73,3.68,3.91,7.86,6.62,12.68L905,940H1060.5l-13.93-28.73c-6.91-14.24-9.6-22.77-10.64-27.42s-2.3-13.71-2.3-30.06V716.39c0-16.92-3.36-34.75-10-53-7-19.25-17-34.58-29.68-45.59-17.13-15-38.56-25-63.71-29.65-22.79-4.2-53-6.33-89.77-6.33ZM812.67,715.72c4.24-12,8.53-15.71,10.19-16.77,3.62-2.32,12.75-6.22,33.15-6.22,14.36,0,18,3.14,18,3.17a8.9,8.9,0,0,1,1.45,3.11c-9,3.21-17.66,5.94-25.9,8.19-7.23,2-19.58,4.82-36.92,8.52Zm38.12,91.51q13.13-3.32,25.89-7.16c-.65,7.51-2.19,13.65-4.61,18.33-2.94,5.71-8.45,10.87-16.36,15.33a54.05,54.05,0,0,1-27.24,7.09c-7.29,0-12.75-1.32-15.39-3.72-2-1.8-3.28-3.88-3.28-8.21,0-1.91.46-4.3,3.89-7.62.6-.59,6.84-6,37.1-14Z"/><path class="cls-2" d="M1328.4,1018.77V930H1128.09v88.77H1025.18V823h34.21c19.1-36.83,28.78-85.14,28.78-143.72v-80.4h310V823H1431v195.78ZM1258.68,823V705.88h-37.2c-.81,38-8.67,77.3-23.43,117.11Z"/><path class="cls-3" d="M1388.21,608.87V833H1421v175.78H1338.4V920H1118.09v88.77h-82.91V833h30.18q32.81-58.66,32.81-153.72v-70.4h290M1183.42,833h85.26V695.88h-57.13v3.52q0,64.89-28.13,133.59m224.79-244.12h-330v90.4c0,54.12-8.4,99-25,133.72h-38v215.78h122.91V940H1318.4v88.77H1441V813h-32.81V588.87Zm-177.09,127h17.56V813h-36.51c11-32.88,17.31-65.39,18.95-97.11Z"/><polygon class="cls-2" points="1671.05 930 1671.05 796.47 1568.95 930 1440.48 930 1440.48 598.87 1573.27 598.87 1573.27 734.38 1676.55 598.87 1803.84 598.87 1803.84 930 1671.05 930"/><path class="cls-3" d="M1793.84,608.87V920H1681.05V766.93L1564,920H1450.48V608.87h112.79V764L1681.5,608.87h112.34m20-20H1671.6l-6,7.87-82.32,108V588.87H1430.48V940h143.41l6-7.85L1661.05,826V940h152.79V588.87Z"/><polygon class="cls-2" points="2074.04 930 2074.04 812.52 1985.64 812.52 1985.64 930 1846.11 930 1846.11 598.87 1985.64 598.87 1985.64 705.51 2074.04 705.51 2074.04 598.87 2213.57 598.87 2213.57 930 2074.04 930"/><path class="cls-3" d="M2203.57,608.87V920H2084V802.52h-108.4V920H1856.11V608.87h119.53V715.51H2084V608.87h119.53m20-20H2064V695.51h-68.4V588.87H1836.11V940h159.53V822.52H2064V940h159.53V588.87Z"/><path class="cls-2" d="M2360.48,937c-39.48,0-70.16-9.53-91.19-28.32-21.36-19.08-32.19-43-32.19-71,0-26.1,7.87-48,23.4-65s42.37-29.13,82.2-37.06c44.28-8.89,73.34-15.19,86.34-18.73,10.89-3,22.48-6.76,34.55-11.32-.68-8-2.64-13.79-5.77-16.82-4-3.85-12.85-6-25-6-17.5,0-30.47,2.63-38.55,7.8-5.65,3.62-10.5,11.16-14.41,22.4l-2.6,7.49-132.93-14,2.35-10.88c4.56-21.16,11.36-38.22,20.22-50.7s21.84-23.61,38.34-32.71c12-6.65,27.8-11.61,48.23-15.16a376.05,376.05,0,0,1,63.82-5.12c36.17,0,65.76,2.07,88,6.17,23.37,4.32,43.22,13.52,59,27.37,11.36,9.83,20.41,23.79,26.83,41.45,6.23,17.13,9.39,33.81,9.39,49.56v137.4c0,13.86.85,24.71,2.54,32.24s5.51,17.47,11.4,29.61l7,14.36H2487.63l-2.87-5.1c-4.86-8.67-8-15.25-9.58-20.12-.36-1.12-.72-2.37-1.08-3.74-12.06,9.82-24.2,17.3-36.23,22.33C2415.58,932.45,2389.57,937,2360.48,937Zm64.62-139.48c-29.37,7.82-38.64,13.72-41.55,16.54-4.72,4.58-6.92,9.29-6.92,14.8,0,6.58,2.08,11.54,6.54,15.6,4.62,4.2,12.06,6.33,22.13,6.33a63.77,63.77,0,0,0,32.15-8.38c9.64-5.44,16.48-12,20.34-19.46,4-7.8,6.07-18.43,6.07-31.59v-5.06C2451.3,790.45,2438.32,794.21,2425.1,797.55Z"/><path class="cls-3" d="M2417.31,601.84q53.61,0,86.14,6t54.19,25q15.24,13.18,24,37.35t8.79,46.15v137.4q0,22,2.78,34.42T2605.4,920H2493.48q-6.74-12-8.78-18.31t-4.11-19.78q-23.43,22.58-46.58,32.23Q2402.38,927,2360.48,927q-55.67,0-84.52-25.78t-28.86-63.57q0-35.45,20.8-58.3t76.76-34q67.08-13.47,87-18.9a406.94,406.94,0,0,0,42.19-14.2q0-22-9.09-30.77t-31.93-8.79q-29.3,0-44,9.38-11.41,7.32-18.45,27.54l-114-12q6.45-29.89,18.61-47t35-29.74q16.39-9.07,45.11-14.06a363.9,363.9,0,0,1,62.11-5m-12,259a74.12,74.12,0,0,0,37.06-9.67q17.14-9.66,24.32-23.58t7.18-36.18v-19q-24.62,8.79-51.27,15.53-36.33,9.68-46,19-10,9.68-10,22,0,14.05,9.81,23t28.86,8.94m12-279a385.59,385.59,0,0,0-65.52,5.27c-21.56,3.74-38.37,9.06-51.39,16.27-17.8,9.82-31.82,21.82-41.64,35.67s-16.92,31.57-21.84,54.37l-4.69,21.77,22.15,2.34,83.6,8.81c-40.48,8.37-68.27,21.33-84.87,39.57-17.26,19-26,43.1-26,71.77,0,31,12,57.43,35.53,78.49,22.92,20.48,55.84,30.86,97.85,30.86,30.39,0,57.67-4.83,81.08-14.37l.08,0,.08,0a147.55,147.55,0,0,0,27.7-15.48c1.73,3.68,3.92,7.86,6.62,12.68l5.74,10.21h155.55l-13.94-28.73c-6.91-14.25-9.59-22.77-10.63-27.41s-2.3-13.72-2.3-30.07V716.39c0-16.92-3.37-34.75-10-53-7-19.25-17-34.58-29.67-45.59-17.13-15-38.56-25-63.71-29.65-22.79-4.2-53-6.33-89.77-6.33ZM2389.5,715.72c4.24-12,8.53-15.71,10.19-16.77,3.62-2.32,12.75-6.22,33.15-6.22,14.36,0,18,3.14,18,3.17a8.9,8.9,0,0,1,1.45,3.11c-9,3.21-17.66,5.94-25.9,8.19-7.23,2-19.59,4.82-36.92,8.52Zm38.12,91.51c8.74-2.21,17.39-4.61,25.88-7.16-.64,7.51-2.18,13.65-4.6,18.33-2.94,5.71-8.45,10.87-16.37,15.33a54,54,0,0,1-27.23,7.09c-7.29,0-12.75-1.32-15.39-3.72-2-1.8-3.28-3.88-3.28-8.21,0-1.91.46-4.3,3.89-7.62.6-.59,6.84-6,37.1-14Z"/><path class="cls-2" d="M2634.53,1048.36V598.87h131.62V628.4c9.66-9.74,18.86-16.89,27.79-21.63,18.78-9.91,39.77-14.93,62.4-14.93,44.82,0,80,17.47,104.67,51.93,23.89,33.43,36,75.11,36,123.89,0,54.08-13.4,96.21-39.81,125.23-26.67,29.29-60.8,44.14-101.44,44.14-19.59,0-37.78-3.41-54.06-10.13a126.83,126.83,0,0,1-26.76-15.08v136.54Zm182.85-348.93c-12.27,0-22.24,4.7-30.48,14.36-8.52,10-12.84,27.33-12.84,51.52,0,22,4.4,38.25,13.07,48.23,8.44,9.71,18.81,14.43,31.71,14.43,10.82,0,19.69-4.41,27.14-13.48,7.82-9.54,11.79-27,11.79-51.81,0-22.69-4.16-39.23-12.36-49.15C2837.57,704,2828.4,699.43,2817.38,699.43Z"/><path class="cls-3" d="M2856.34,601.84q62.41,0,96.54,47.75T2987,767.66q0,77.64-37.21,118.5t-94,40.87q-27.54,0-50.25-9.37a119.61,119.61,0,0,1-40.57-27.84v148.54H2644.53V608.87h111.62v46q23.14-29,42.48-39.25,26.07-13.77,57.71-13.77M2818.84,838q20.8,0,34.87-17.14t14.06-58.15q0-37.8-14.65-55.52t-35.74-17.73q-22.86,0-38.09,17.87t-15.23,58q0,36.91,15.53,54.79T2818.84,838m37.5-256.13c-24.28,0-46.84,5.41-67.05,16.08a101.2,101.2,0,0,0-13.14,8.41V588.87H2624.53v469.49h160.41V930a134.36,134.36,0,0,0,12.94,6.16c17.5,7.23,37,10.89,57.88,10.89,43.57,0,80.19-15.95,108.83-47.4,14.32-15.73,25.15-35.09,32.2-57.54,6.78-21.6,10.22-46.64,10.22-74.43,0-50.91-12.74-94.54-37.86-129.7-13.26-18.55-29.61-32.72-48.6-42.11-18.8-9.3-40.4-14-64.21-14ZM2818.84,818c-10,0-17.64-3.49-24.15-11-7-8-10.63-22.4-10.63-41.67,0-27.08,5.68-39.44,10.45-45,6.4-7.5,13.45-10.85,22.87-10.85,8.07,0,14.34,3.23,20.33,10.47,6.58,8,10.06,22.76,10.06,42.78,0,29.46-6,41.13-9.52,45.46-5.58,6.8-11.56,9.83-19.41,9.83Z"/></g></g></svg>